General
Complete name                    : Fantastic Mr. Fox.avi
Format                           : AVI
Format/Info                      : Audio Video Interleave
File size                        : 705 MiB
Duration                         : 1h 23mn
Overall bit rate                 : 1 185 Kbps

Video
ID                               : 0
Format                           : MPEG-4 Visual
Codec ID                         : XVID
Duration                         : 1h 23mn
Bit rate                         : 1 044 Kbps
Width                            : 718 pixels
Height                           : 552 pixels
Display aspect ratio             : 1.850
Frame rate                       : 25.000 fps
Resolution                       : 8 bits
Colorimetry                      : 4:2:0
Scan type                        : Progressive
Bits/(Pixel*Frame)               : 0.105
Stream size                      : 621 MiB (88%)
Writing library                  : XviD 1.1.2 (UTC 2006-11-01)

Audio
ID                               : 1
Format                           : MPEG Audio
Mode                             : Joint stereo
Codec ID                         : 55
Codec ID/Hint                    : MP3
Duration                         : 1h 23mn
Bit rate                         : 128 Kbps
Channel(s)                       : 2 channels
Sampling rate                    : 48.0 KHz
Stream size                      : 76.2 MiB (11%)
Writing library                  : LAME3.98

General.........................: Optional subtitles in .srt

Complete name                    : Fantastic Mr. Fox.Dan.srt
File size                        : 77.8 KiB

General
Complete name                    : Fantastic Mr. Fox.Fin.srt
File size                        : 76.6 KiB

General
Complete name                    : Fantastic Mr. Fox.Nor.srt
File size                        : 73.8 KiB

General
Complete name                    : Fantastic Mr. Fox.Swe.srt
File size                        : 74.8 KiB

